<svg width="48" height="48" viewBox="0 0 48 48" fill="none" xmlns="http://www.w3.org/2000/svg">
<g filter="url(#filter0_i_17_1717)">
<path fill-rule="evenodd" clip-rule="evenodd" d="M18 4C9.16344 4 2 11.1634 2 20L2.00337 20.3313C2.16721 28.3732 8.28258 35.0157 16.2043 35.9002L16.468 35.927L16.5604 35.9515C16.7019 35.9833 16.849 36 17 36H35L35.2943 35.996C41.262 35.8234 46 30.9545 46 25C46 18.9249 41.0751 14 35 14L34.5683 14.0083C34.1378 14.025 33.7111 14.0666 33.2899 14.1325L32.915 14.198L32.8113 13.9358C30.3965 8.033 24.6037 4 18 4Z" fill="url(#paint0_linear_17_1717)"/>
</g>
<path fill-rule="evenodd" clip-rule="evenodd" d="M16.8573 36.4292L18.6911 39.4855C18.8811 39.8022 18.8811 40.1978 18.6911 40.5145L16.8573 43.5708C16.5732 44.0444 15.9589 44.198 15.4853 43.9138C15.3446 43.8294 15.2268 43.7116 15.1423 43.5708L13.3085 40.5145C13.1185 40.1978 13.1185 39.8022 13.3085 39.4855L15.1423 36.4292C15.4265 35.9556 16.0407 35.802 16.5143 36.0862C16.6551 36.1706 16.7729 36.2884 16.8573 36.4292ZM24.8573 36.4292L26.6911 39.4855C26.8811 39.8022 26.8811 40.1978 26.6911 40.5145L24.8573 43.5708C24.5732 44.0444 23.9589 44.198 23.4853 43.9138C23.3446 43.8294 23.2268 43.7116 23.1423 43.5708L21.3085 40.5145C21.1185 40.1978 21.1185 39.8022 21.3085 39.4855L23.1423 36.4292C23.4265 35.9556 24.0407 35.802 24.5143 36.0862C24.6551 36.1706 24.7729 36.2884 24.8573 36.4292ZM32.8573 36.4292L34.6911 39.4855C34.8811 39.8022 34.8811 40.1978 34.6911 40.5145L32.8573 43.5708C32.5732 44.0444 31.9589 44.198 31.4853 43.9138C31.3446 43.8294 31.2268 43.7116 31.1423 43.5708L29.3085 40.5145C29.1185 40.1978 29.1185 39.8022 29.3085 39.4855L31.1423 36.4292C31.4265 35.9556 32.0407 35.802 32.5143 36.0862C32.6551 36.1706 32.7729 36.2884 32.8573 36.4292Z" fill="url(#paint1_linear_17_1717)"/>
<defs>
<filter id="filter0_i_17_1717" x="0" y="4" width="46" height="36" filterUnits="userSpaceOnUse" color-interpolation-filters="sRGB">
<feFlood flood-opacity="0" result="BackgroundImageFix"/>
<feBlend mode="normal" in="SourceGraphic" in2="BackgroundImageFix" result="shape"/>
<feColorMatrix in="SourceAlpha" type="matrix" values="0 0 0 0 0 0 0 0 0 0 0 0 0 0 0 0 0 0 127 0" result="hardAlpha"/>
<feOffset dx="-2" dy="4"/>
<feGaussianBlur stdDeviation="2"/>
<feComposite in2="hardAlpha" operator="arithmetic" k2="-1" k3="1"/>
<feColorMatrix type="matrix" values="0 0 0 0 1 0 0 0 0 1 0 0 0 0 1 0 0 0 1 0"/>
<feBlend mode="normal" in2="shape" result="effect1_innerShadow_17_1717"/>
</filter>
<linearGradient id="paint0_linear_17_1717" x1="5.08244" y1="4" x2="46.4873" y2="35.3565" gradientUnits="userSpaceOnUse">
<stop stop-color="white"/>
<stop offset="1" stop-color="#B4E6FB"/>
</linearGradient>
<linearGradient id="paint1_linear_17_1717" x1="13.166" y1="35.9435" x2="13.166" y2="44.0565" gradientUnits="userSpaceOnUse">
<stop stop-color="#4CAFFF"/>
<stop offset="1" stop-color="#8FD5FF"/>
</linearGradient>
</defs>
</svg>
